<mxfile host="Electron" modified="2025-04-18T13:22:35.035Z" agent="Mozilla/5.0 (X11; Linux x86_64) AppleWebKit/537.36 (KHTML, like Gecko) draw.io/24.5.3 Chrome/124.0.6367.207 Electron/30.0.6 Safari/537.36" etag="XX9p97FXRxkxbHtNcCWY" version="24.5.3" type="device">
  <diagram name="第 1 页" id="PSBUdQU4QRtS8JhmlRqs">
    <mxGraphModel dx="989" dy="600" grid="1" gridSize="10" guides="1" tooltips="1" connect="1" arrows="1" fold="1" page="1" pageScale="1" pageWidth="850" pageHeight="1100" math="0" shadow="0">
      <root>
        <mxCell id="0" />
        <mxCell id="1" parent="0" />
        <mxCell id="DmGKTJ-AFHGoHqkotbEC-5" style="edgeStyle=orthogonalEdgeStyle;rounded=0;orthogonalLoop=1;jettySize=auto;html=1;entryX=0.5;entryY=1;entryDx=0;entryDy=0;endArrow=none;endFill=0;" edge="1" parent="1" source="DmGKTJ-AFHGoHqkotbEC-1" target="DmGKTJ-AFHGoHqkotbEC-4">
          <mxGeometry relative="1" as="geometry">
            <Array as="points">
              <mxPoint x="85" y="230" />
              <mxPoint x="134" y="230" />
            </Array>
          </mxGeometry>
        </mxCell>
        <mxCell id="DmGKTJ-AFHGoHqkotbEC-1" value="&lt;font face=&quot;CaskaydiaCove Nerd Font&quot; style=&quot;font-size: 18px;&quot;&gt;Prim/USD&lt;/font&gt;" style="whiteSpace=wrap;html=1;" vertex="1" parent="1">
          <mxGeometry x="30" y="240" width="110" height="30" as="geometry" />
        </mxCell>
        <mxCell id="DmGKTJ-AFHGoHqkotbEC-6" style="edgeStyle=orthogonalEdgeStyle;rounded=0;orthogonalLoop=1;jettySize=auto;html=1;entryX=0.5;entryY=1;entryDx=0;entryDy=0;endArrow=none;endFill=0;" edge="1" parent="1" source="DmGKTJ-AFHGoHqkotbEC-2" target="DmGKTJ-AFHGoHqkotbEC-4">
          <mxGeometry relative="1" as="geometry">
            <Array as="points">
              <mxPoint x="184" y="230" />
              <mxPoint x="134" y="230" />
            </Array>
          </mxGeometry>
        </mxCell>
        <mxCell id="DmGKTJ-AFHGoHqkotbEC-2" value="&lt;font face=&quot;CaskaydiaCove Nerd Font&quot; style=&quot;font-size: 18px;&quot;&gt;Attri&lt;/font&gt;" style="whiteSpace=wrap;html=1;" vertex="1" parent="1">
          <mxGeometry x="150" y="240" width="67.5" height="30" as="geometry" />
        </mxCell>
        <mxCell id="DmGKTJ-AFHGoHqkotbEC-14" style="edgeStyle=orthogonalEdgeStyle;rounded=0;orthogonalLoop=1;jettySize=auto;html=1;entryX=0.5;entryY=1;entryDx=0;entryDy=0;endArrow=none;endFill=0;" edge="1" parent="1" source="DmGKTJ-AFHGoHqkotbEC-4" target="DmGKTJ-AFHGoHqkotbEC-13">
          <mxGeometry relative="1" as="geometry">
            <Array as="points">
              <mxPoint x="134" y="170" />
              <mxPoint x="244" y="170" />
            </Array>
          </mxGeometry>
        </mxCell>
        <mxCell id="DmGKTJ-AFHGoHqkotbEC-4" value="&lt;font face=&quot;CaskaydiaCove Nerd Font&quot; style=&quot;font-size: 18px;&quot;&gt;Scene&lt;/font&gt;" style="whiteSpace=wrap;html=1;" vertex="1" parent="1">
          <mxGeometry x="100" y="180" width="67.5" height="30" as="geometry" />
        </mxCell>
        <mxCell id="DmGKTJ-AFHGoHqkotbEC-7" style="edgeStyle=orthogonalEdgeStyle;rounded=0;orthogonalLoop=1;jettySize=auto;html=1;entryX=0.5;entryY=1;entryDx=0;entryDy=0;endArrow=none;endFill=0;" edge="1" parent="1" source="DmGKTJ-AFHGoHqkotbEC-8" target="DmGKTJ-AFHGoHqkotbEC-11">
          <mxGeometry relative="1" as="geometry">
            <Array as="points">
              <mxPoint x="325" y="230" />
              <mxPoint x="374" y="230" />
            </Array>
          </mxGeometry>
        </mxCell>
        <mxCell id="DmGKTJ-AFHGoHqkotbEC-8" value="&lt;font face=&quot;CaskaydiaCove Nerd Font&quot; style=&quot;font-size: 18px;&quot;&gt;Prim/USD&lt;/font&gt;" style="whiteSpace=wrap;html=1;" vertex="1" parent="1">
          <mxGeometry x="270" y="240" width="110" height="30" as="geometry" />
        </mxCell>
        <mxCell id="DmGKTJ-AFHGoHqkotbEC-9" style="edgeStyle=orthogonalEdgeStyle;rounded=0;orthogonalLoop=1;jettySize=auto;html=1;entryX=0.5;entryY=1;entryDx=0;entryDy=0;endArrow=none;endFill=0;" edge="1" parent="1" source="DmGKTJ-AFHGoHqkotbEC-10" target="DmGKTJ-AFHGoHqkotbEC-11">
          <mxGeometry relative="1" as="geometry">
            <Array as="points">
              <mxPoint x="424" y="230" />
              <mxPoint x="374" y="230" />
            </Array>
          </mxGeometry>
        </mxCell>
        <mxCell id="DmGKTJ-AFHGoHqkotbEC-10" value="&lt;font face=&quot;CaskaydiaCove Nerd Font&quot; style=&quot;font-size: 18px;&quot;&gt;Attri&lt;/font&gt;" style="whiteSpace=wrap;html=1;" vertex="1" parent="1">
          <mxGeometry x="390" y="240" width="67.5" height="30" as="geometry" />
        </mxCell>
        <mxCell id="DmGKTJ-AFHGoHqkotbEC-16" style="edgeStyle=orthogonalEdgeStyle;rounded=0;orthogonalLoop=1;jettySize=auto;html=1;entryX=0.5;entryY=1;entryDx=0;entryDy=0;endArrow=none;endFill=0;" edge="1" parent="1" source="DmGKTJ-AFHGoHqkotbEC-11" target="DmGKTJ-AFHGoHqkotbEC-13">
          <mxGeometry relative="1" as="geometry">
            <Array as="points">
              <mxPoint x="374" y="170" />
              <mxPoint x="244" y="170" />
            </Array>
          </mxGeometry>
        </mxCell>
        <mxCell id="DmGKTJ-AFHGoHqkotbEC-11" value="&lt;font face=&quot;CaskaydiaCove Nerd Font&quot; style=&quot;font-size: 18px;&quot;&gt;Scene&lt;/font&gt;" style="whiteSpace=wrap;html=1;" vertex="1" parent="1">
          <mxGeometry x="340" y="180" width="67.5" height="30" as="geometry" />
        </mxCell>
        <mxCell id="DmGKTJ-AFHGoHqkotbEC-12" value="&lt;font face=&quot;CaskaydiaCove Nerd Font&quot;&gt;&lt;span style=&quot;font-size: 18px;&quot;&gt;......&lt;/span&gt;&lt;/font&gt;" style="whiteSpace=wrap;html=1;strokeColor=none;spacingBottom=10;" vertex="1" parent="1">
          <mxGeometry x="217.5" y="180" width="67.5" height="30" as="geometry" />
        </mxCell>
        <mxCell id="DmGKTJ-AFHGoHqkotbEC-20" style="edgeStyle=orthogonalEdgeStyle;rounded=0;orthogonalLoop=1;jettySize=auto;html=1;entryX=0.5;entryY=1;entryDx=0;entryDy=0;endArrow=none;endFill=0;" edge="1" parent="1" source="DmGKTJ-AFHGoHqkotbEC-13" target="DmGKTJ-AFHGoHqkotbEC-19">
          <mxGeometry relative="1" as="geometry">
            <Array as="points">
              <mxPoint x="244" y="110" />
              <mxPoint x="374" y="110" />
            </Array>
          </mxGeometry>
        </mxCell>
        <mxCell id="DmGKTJ-AFHGoHqkotbEC-13" value="&lt;font face=&quot;CaskaydiaCove Nerd Font&quot; style=&quot;font-size: 18px;&quot;&gt;Stage&lt;/font&gt;" style="whiteSpace=wrap;html=1;" vertex="1" parent="1">
          <mxGeometry x="210" y="120" width="67.5" height="30" as="geometry" />
        </mxCell>
        <mxCell id="DmGKTJ-AFHGoHqkotbEC-21" style="edgeStyle=orthogonalEdgeStyle;rounded=0;orthogonalLoop=1;jettySize=auto;html=1;entryX=0.5;entryY=1;entryDx=0;entryDy=0;endArrow=none;endFill=0;" edge="1" parent="1" source="DmGKTJ-AFHGoHqkotbEC-18" target="DmGKTJ-AFHGoHqkotbEC-19">
          <mxGeometry relative="1" as="geometry">
            <Array as="points">
              <mxPoint x="534" y="110" />
              <mxPoint x="374" y="110" />
            </Array>
          </mxGeometry>
        </mxCell>
        <mxCell id="DmGKTJ-AFHGoHqkotbEC-18" value="&lt;font face=&quot;CaskaydiaCove Nerd Font&quot; style=&quot;font-size: 18px;&quot;&gt;Simulator&lt;/font&gt;" style="whiteSpace=wrap;html=1;" vertex="1" parent="1">
          <mxGeometry x="477.5" y="120" width="112.5" height="30" as="geometry" />
        </mxCell>
        <mxCell id="DmGKTJ-AFHGoHqkotbEC-23" value="" style="edgeStyle=orthogonalEdgeStyle;rounded=0;orthogonalLoop=1;jettySize=auto;html=1;endArrow=none;endFill=0;" edge="1" parent="1" source="DmGKTJ-AFHGoHqkotbEC-19" target="DmGKTJ-AFHGoHqkotbEC-22">
          <mxGeometry relative="1" as="geometry" />
        </mxCell>
        <mxCell id="DmGKTJ-AFHGoHqkotbEC-19" value="&lt;font face=&quot;CaskaydiaCove Nerd Font&quot; style=&quot;font-size: 18px;&quot;&gt;World&lt;/font&gt;" style="whiteSpace=wrap;html=1;" vertex="1" parent="1">
          <mxGeometry x="317.5" y="60" width="112.5" height="30" as="geometry" />
        </mxCell>
        <mxCell id="DmGKTJ-AFHGoHqkotbEC-22" value="&lt;font face=&quot;CaskaydiaCove Nerd Font&quot; style=&quot;font-size: 18px;&quot;&gt;App&lt;/font&gt;" style="whiteSpace=wrap;html=1;" vertex="1" parent="1">
          <mxGeometry x="317.5" y="10" width="112.5" height="30" as="geometry" />
        </mxCell>
      </root>
    </mxGraphModel>
  </diagram>
</mxfile>
